<svg xmlns="http://www.w3.org/2000/svg" viewBox="0 0 1021.4 57" style="enable-background:new 0 0 1021.4 57" xml:space="preserve"><path d="M1015.5 0h-8.2c-3.2 0-5.9 2.6-5.9 5.9V22h-80V5.9c0-3.2-2.6-5.9-5.9-5.9h-8.2c-3.2 0-5.9 2.6-5.9 5.9V22h-80V5.9c0-3.2-2.6-5.9-5.9-5.9h-8.2c-3.2 0-5.9 2.6-5.9 5.9V22h-80V5.9c0-3.2-2.6-5.9-5.9-5.9h-8.2c-3.2 0-5.9 2.6-5.9 5.9V22h-80V5.9c0-3.2-2.6-5.9-5.9-5.9h-8.2c-3.2 0-5.9 2.6-5.9 5.9V22h-80V5.9c0-3.3-2.6-5.9-5.9-5.9h-9.6c-3.2 0-5.9 2.6-5.9 5.9V22h-80V5.9c0-3.2-2.6-5.9-5.9-5.9h-8.2c-3.2 0-5.9 2.6-5.9 5.9V22h-80V5.9c0-3.2-2.6-5.9-5.9-5.9h-8.2c-3.2 0-5.9 2.6-5.9 5.9V22h-80V5.9c0-3.2-2.6-5.9-5.9-5.9h-8.2c-3.2 0-5.9 2.6-5.9 5.9V22h-80V5.9c0-3.2-2.6-5.9-5.9-5.9h-8.2c-3.2 0-5.9 2.6-5.9 5.9V22H20V5.9C20 2.6 17.4 0 14.1 0H5.9C2.6 0 0 2.6 0 5.9v45.2C0 54.4 2.6 57 5.9 57h8.2c3.2 0 5.9-2.6 5.9-5.9V40h80v11.1c0 3.2 2.6 5.9 5.9 5.9h8.2c3.2 0 5.9-2.6 5.9-5.9V40h80v11.1c0 3.2 2.6 5.9 5.9 5.9h8.2c3.2 0 5.9-2.6 5.9-5.9V40h80v11.1c0 3.2 2.6 5.9 5.9 5.9h8.2c3.2 0 5.9-2.6 5.9-5.9V40h80v11.1c0 3.2 2.6 5.9 5.9 5.9h8.2c3.2 0 5.9-2.6 5.9-5.9V40h80v11.1c0 3.2 2.6 5.9 5.9 5.9h9.6c3.2 0 5.9-2.6 5.9-5.9V40h80v11.1c0 3.2 2.6 5.9 5.9 5.9h8.2c3.2 0 5.9-2.6 5.9-5.9V40h80v11.1c0 3.2 2.6 5.9 5.9 5.9h8.2c3.2 0 5.9-2.6 5.9-5.9V40h80v11.1c0 3.2 2.6 5.9 5.9 5.9h8.2c3.2 0 5.9-2.6 5.9-5.9V40h80v11.1c0 3.2 2.6 5.9 5.9 5.9h8.2c3.2 0 5.9-2.6 5.9-5.9V40h80v11.1c0 3.2 2.6 5.9 5.9 5.9h8.2c3.2 0 5.9-2.6 5.9-5.9V5.9c0-3.3-2.6-5.9-5.9-5.9z" style="fill:#d68500"/></svg>