<svg xmlns="http://www.w3.org/2000/svg" viewBox="0 0 152 152" style="enable-background:new 0 0 152 152" xml:space="preserve"><style>.st4{fill:#a65200}.st7{fill:none;stroke:#824200;stroke-width:1.6989;stroke-linecap:round;stroke-miterlimit:10}</style><g id="Layer_2"><path class="st4" d="M148.1 88.9s-4 14.8-23.8 34.7S89 148 89 148c-5.1 5.1-13.3 5.1-18.4 0 0 0-23.2-14.8-39.5-31-12-12-27.4-35.9-27.4-35.9-5.1-5.1-5.1-13.3 0-18.4 7.4-7.4 5.8-15.4 25-34.7 18-18 26.7-17 34.1-24.4 5.1-5.1 13.3-5.1 18.4 0 0 0 16 7.6 38.3 29.8 21 21 28.6 37.1 28.6 37.1 5 5.1 5 13.3 0 18.4z"/><path d="M141 87.7s-3.6 13.4-21.5 31.3-31.8 22-31.8 22c-4.6 4.6-12 4.6-16.6 0 0 0-21-13.4-35.6-28-10.8-10.8-24.8-32.3-24.8-32.3-4.6-4.6-4.6-12 0-16.6 6.7-6.7 5.3-13.9 22.6-31.3 16.3-16.3 24.1-15.4 30.7-22 4.6-4.6 12-4.6 16.6 0 0 0 14.5 6.9 34.5 26.9 19 19 25.8 33.4 25.8 33.4 4.7 4.6 4.7 12 .1 16.6z" style="fill:#e58700"/><path d="M94.2 119.6s-2.4-21.4-30.5-63" style="fill:none;stroke:#a65200;stroke-width:3.734;stroke-linecap:round;stroke-miterlimit:10"/><path class="st4" d="m96.6 99-4.6 2.1-2-4.6c-1.2-2.7 0-5.9 2.7-7.2l4.6-2.1 2.1 4.6c1.2 2.7-.1 6-2.8 7.2zM91.7 87l-4.6 2.1-2.1-4.6c-1.2-2.7 0-5.9 2.7-7.2l4.6-2.1 2.1 4.6c1.3 2.8.1 6-2.7 7.2zM86.1 75.7l-4.4 2.5-2.5-4.4c-1.5-2.6-.5-5.9 2.1-7.4l4.4-2.5 2.5 4.4c1.4 2.6.5 5.9-2.1 7.4zM79.1 64.2l-4.3 2.7-2.7-4.3c-1.6-2.5-.8-5.9 1.7-7.5l4.3-2.7 2.7 4.3c1.6 2.6.9 5.9-1.7 7.5zM62.2 48.5l-1.1 4.9-4.9-1.1c-2.9-.7-4.8-3.6-4.1-6.5l1.1-4.9 4.9 1.1c3 .6 4.8 3.6 4.1 6.5zM79.9 106l4.7-1.7-1.7-4.7c-1-2.8-4.2-4.2-7-3.2l-4.7 1.7 1.7 4.7c1 2.8 4.2 4.2 7 3.2zM75.3 94.8l4.5-2.3-2.3-4.5c-1.3-2.7-4.6-3.8-7.3-2.4l-4.5 2.3 2.3 4.5c1.4 2.7 4.6 3.8 7.3 2.4zM69.6 84.3l4.5-2.3-2.3-4.5c-1.3-2.7-4.6-3.8-7.3-2.4L60 77.4l2.3 4.5c1.3 2.7 4.6 3.7 7.3 2.4zM64.3 73.5l4.3-2.7-2.7-4.3c-1.6-2.5-4.9-3.3-7.5-1.7l-4.3 2.7 2.7 4.3c1.6 2.5 5 3.3 7.5 1.7zM72.8 54.1l-4.3 2.7-2.7-4.3c-1.6-2.5-.8-5.9 1.8-7.5l4.3-2.7 2.7 4.3c1.5 2.5.7 5.9-1.8 7.5zM57.9 63.4l4.3-2.7-2.7-4.3c-1.6-2.5-4.9-3.3-7.5-1.7l-4.3 2.7 2.7 4.3c1.6 2.5 5 3.3 7.5 1.7z"/><path class="st7" d="m90.6 136.8 2.4 6M96.1 133.6l2.4 6M101.7 130.5l2.4 6M106.7 126.7l2.4 6M111.7 122.9l2.4 6M116 118.5l2.4 6.1M120.4 114.2l2.4 6M124.8 109.8l2.4 6M128.5 104.8l2.4 6M132.3 99.9l2.4 6M136.1 94.9l2.4 6M138.6 88.7l2.4 6M132.6 65.9l6-2.4M129.5 60.3l6-2.4M126.3 54.8l6-2.4M122.5 49.8l6-2.4M118.7 44.8l6.1-2.4M114.4 40.5l6-2.4M110 36.1l6-2.4M105.6 31.7l6.1-2.4M100.7 28l6-2.4M95.7 24.2l6-2.4M90.7 20.4l6-2.4M84.6 17.9l6-2.4M30 41.2l-6-2.4M16.1 62.3l-6-2.4M19.3 56.7l-6-2.4M22.4 51.2l-6-2.4M26.2 46.2l-6-2.4M34.3 36.9l-6-2.4M38.7 32.5l-6-2.4M43.1 28.1l-6-2.4M48 24.4 42 22M53 20.6l-6-2.4M58 16.8l-6-2.4M64.1 14.3l-6-2.4M19.9 86.6l-6 2.4M23 92.1l-6 2.4M26.2 97.7l-6 2.4M30 102.7l-6 2.4M33.7 107.6l-6 2.4M38.1 112l-6 2.4M42.5 116.4l-6 2.4M46.8 120.7l-6 2.4M51.8 124.5l-6 2.4M56.8 128.3l-6 2.4M61.7 132l-6 2.4M67.9 134.6l-6 2.4"/></g></svg>