<svg xmlns="http://www.w3.org/2000/svg" viewBox="0 0 1020 134" style="enable-background:new 0 0 1020 134" xml:space="preserve"><path d="M1011 0h-2c-5 0-9 4-9 9v23h-80V9c0-5-4-9-9-9h-2c-5 0-9 4-9 9v23h-80V9c0-5-4-9-9-9h-2c-5 0-9 4-9 9v23h-80V9c0-5-4-9-9-9h-2c-5 0-9 4-9 9v23h-80V9c0-5-4-9-9-9h-2c-5 0-9 4-9 9v23h-80V9c0-5-4-9-9-9h-2c-5 0-9 4-9 9v23h-80V9c0-5-4-9-9-9h-2c-5 0-9 4-9 9v23h-80V9c0-5-4-9-9-9h-2c-5 0-9 4-9 9v23h-80V9c0-5-4-9-9-9h-2c-5 0-9 4-9 9v23h-80V9c0-5-4-9-9-9h-2c-5 0-9 4-9 9v23H20V9c0-5-4-9-9-9H9C4 0 0 4 0 9v116c0 5 4 9 9 9h2c5 0 9-4 9-9V95h80v30c0 5 4 9 9 9h2c5 0 9-4 9-9V95h80v30c0 5 4 9 9 9h2c5 0 9-4 9-9V95h80v30c0 5 4 9 9 9h2c5 0 9-4 9-9V95h80v30c0 5 4 9 9 9h2c5 0 9-4 9-9V95h80v30c0 5 4 9 9 9h2c5 0 9-4 9-9V95h80v30c0 5 4 9 9 9h2c5 0 9-4 9-9V95h80v30c0 5 4 9 9 9h2c5 0 9-4 9-9V95h80v30c0 5 4 9 9 9h2c5 0 9-4 9-9V95h80v30c0 5 4 9 9 9h2c5 0 9-4 9-9V95h80v30c0 5 4 9 9 9h2c5 0 9-4 9-9V9c0-5-4-9-9-9zM100 77H20V50h80v27zm100 0h-80V50h80v27zm100 0h-80V50h80v27zm100 0h-80V50h80v27zm100 0h-80V50h80v27zm100 0h-80V50h80v27zm100 0h-80V50h80v27zm100 0h-80V50h80v27zm100 0h-80V50h80v27zm100 0h-80V50h80v27z" style="fill:#fca800"/></svg>