<svg version="1.1" id="Layer_1" xmlns="http://www.w3.org/2000/svg" x="0" y="0" viewBox="0 0 515.5 200.5" style="enable-background:new 0 0 515.5 200.5" xml:space="preserve"><style>.st0{fill:#752d00}.st1{fill:#441701}.st2{fill:#fca800}.st3{fill:#00b7d7}.st4{fill:none;stroke:#d87f5b;stroke-width:2.6191;stroke-linecap:round;stroke-linejoin:round;stroke-miterlimit:10}</style><path class="st0" d="m0 53.1 28.2-4v53.5H0z"/><path class="st1" d="m14.1 51.1 14.1-2v53.5h-10z"/><path class="st0" d="M515.5 43.1 487.3 39v53.5h28.2z"/><path class="st1" d="m501.4 41-14.1-2v53.5h9.1z"/><path class="st0" d="M463.4 129.7H51.7c-14.4 0-26.2-11.3-26.9-25.6l-3.4-69.6C20.6 19.3 32.7 6.4 47.9 6.2L469.4 0c16-.2 28.6 13.4 27.3 29.3l-6.5 75.8c-1.2 13.9-12.8 24.6-26.8 24.6z"/><ellipse transform="rotate(-20.265 40.41 114.681)" class="st1" cx="40.4" cy="114.7" rx="6.1" ry="8.1"/><ellipse transform="rotate(-20.265 478.193 16.776)" class="st1" cx="478.2" cy="16.8" rx="6.1" ry="8.1"/><ellipse transform="rotate(-57.798 35.297 25.909)" class="st1" cx="35.3" cy="25.9" rx="9.9" ry="7.4"/><ellipse transform="rotate(-57.798 474.138 114.668)" class="st1" cx="474.2" cy="114.7" rx="7.8" ry="5.8"/><path class="st1" d="M293.6 15.2c4.6-1.3 14.5.8 9.9 6.8-2.3 3.1-16.8 4.7-25.2 6.2-.5.1-1.3.2-2.1.4-1.1.2-1.7 1.2-1.5 2.2 1.1 4.9 2.4 9.9 3.7 14.8 1.5 6.6-.3 9.1 12.3 5.4 7.4-2.2 9.6 6.6 4.8 8.4-14.8 5.5-13.8.5-12.1 16.2.5 5.2 2.3 10.8 1 15.9-1.1 5.1-7.5 5.5-8.9.4-5.9-20.7-8.5-42.3-12.7-63.5-2.1-10.6 25-12.2 30.8-13.2zM118.7 31.8c12.4-7.4 22.7-3 28.4 3.6 14.7 16.9 9.7 48.2-9.5 55.9-34.9 14.3-46.2-43.3-18.9-59.5zm-5 21.4c-2.7 12.3-1.3 28.6 13.7 27.8 20.5-1.8 24.5-38 4.5-41.8-9.9-1.9-17 8.2-18.2 14zM256.1 36.3c8.5-1.1 1.3 24 .7 30.1-3 36.7-14.5 25.1-23.9-.9-1.3 5.8 3.1 28.4-6.9 22.3-4.4-2.7-1.2-19.9-.6-25.3 1.5-5.3-.7-29.5 7.8-16.7 3.1 4.7 6.2 9.2 8.6 14 2.1 3.6 2.2 8.3 4.9 11.3 2.7-10.3 1.4-22.2 5.6-32 .7-1.5 2.1-2.7 3.8-2.8zM336.4 38.1c17.6-3.6 25.4 16.4 7.6 24.5 5.5 5.8 20.2 11.8 18 18-2.9 8.1-20-8.9-26.2-10.8-.7 3.4.2 11.1-4.4 10.4-8-1.3-2.4-26.5-2.1-34 .1-6.4.8-6.9 7.1-8.1zm1.5 7.6c-1-.2-2 .5-2.1 1.6-.5 4.3-1.9 11.6 3.2 9.4 11.9-4.3 7.6-9.6-1.1-11z"/><path class="st1" d="M158.3 47.5c14.7-10.2 38.7 9.4 27.2 23.8-4.3 5.7-10.4 9.6-17.1 11.8.2 7.5 6.1 21.7.8 23.2-6.7 1.9-7.6-19.1-8.2-24.6-.7-8.7-6-31-2.7-34.2zm6.8 8.3 2.6 18.5c15.4-5.2 16.6-21.9-2.6-18.5zM370.9 43.8c6.3-2.5 12.8 11.8 15 16.7.4.7 1.3.8 1.8.2 4.9-6.6 9.6-18.6 18.5-17.3 7.5 5.9-2 61.1-10.7 46.8-2-3.7 6.4-31.5 1.9-26.8-11.6 18.3-15.6 11.9-22.8-3.3-.2-.4-.7-.3-.8.1-.9 8.1-.3 17.1-4.2 24.3-2.3 2.9-5.3.7-4.9-2.5.1-10 3.3-36.3 6.2-38.2z"/><path class="st1" d="M202 50.5c4.9-1.3 19.1-4.6 14.6 4.9-1.3 2.8-17.2 3.4-17.3 4.1-.5 4.6.2 9.8.2 9.8 5.2-1.6 20.4-5.3 18.2 3.1-.8 3.1-19.8 4.6-19.8 4.6-1 4.1 1.3 8.6 1.3 8.6 3.8 1.4 11.4-1.5 14.8-1.7 6.7-.5 11.5 7.8 4.1 9.9-9.2 2.5-25.7 10.4-26.5-4.6-.5-6-5.5-9.1-.7-14.7 1.6-9.2-1.6-23.1 11.1-24zM305.3 49.9c4.7-3.1 15.1 17.1 17.4 20.9 3.8 6.5 4 24.5-3.8 11.4-1.3-2.1-2.6-4.3-3.3-5.6-.4-.6-1.1-1.1-1.9-1.1-2.7 0-6.1.2-7 1-3 2.5-.4 9.1-5.8 11.1-7.8 1.4 0-35.4 4.4-37.7zm2.4 14.3c-1 3.6-.9 5.7 2.6 4 .8-.4 1-1.1.4-1.9-.5-.8-1.3-1.7-2.1-2.4-.1-.3-.7-.1-.9.3z"/><path class="st2" d="M296.3 11.5c4.6-1.3 14.5.8 9.9 6.8-2.3 3.1-16.8 4.7-25.2 6.2-.5.1-1.3.2-2.1.4-1.1.2-1.7 1.2-1.5 2.2 1.1 4.9 2.4 9.9 3.7 14.8 1.5 6.6-.3 9.1 12.3 5.4 7.4-2.2 9.6 6.6 4.8 8.4-14.8 5.5-13.8.5-12.1 16.2.5 5.2 2.3 10.8 1 15.9-1.1 5.1-7.5 5.5-8.9.4-5.9-20.7-8.5-42.3-12.7-63.5-2.1-10.5 25-12.1 30.8-13.2zM121.5 28.2c12.4-7.4 22.7-3 28.4 3.6 14.7 16.9 9.7 48.2-9.5 55.9-35 14.2-46.3-43.3-18.9-59.5zm-5.1 21.4c-2.7 12.3-1.3 28.6 13.7 27.8 20.5-1.8 24.5-38 4.5-41.8-9.8-2-17 8.2-18.2 14zM258.8 32.7c8.5-1.1 1.3 24 .7 30.1-3 36.7-14.5 25.1-23.9-.9-1.3 5.8 3.1 28.4-6.9 22.3-4.4-2.7-1.2-19.9-.6-25.3 1.5-5.3-.7-29.5 7.8-16.7 3.1 4.7 6.2 9.2 8.6 14 2.1 3.6 2.2 8.3 4.9 11.3 2.7-10.3 1.4-22.2 5.6-32 .7-1.5 2.1-2.7 3.8-2.8zM339 34.4c17.6-3.6 25.4 16.4 7.6 24.5 5.5 5.8 20.2 11.8 18 18-2.9 8.1-20-8.9-26.2-10.8-.7 3.4.2 11.1-4.4 10.4-8-1.3-2.4-26.5-2.1-34 .3-6.4.9-6.9 7.1-8.1zm1.6 7.7c-1-.2-2 .5-2.1 1.6-.5 4.3-1.9 11.6 3.2 9.4 11.9-4.4 7.6-9.7-1.1-11z"/><path class="st2" d="M161.1 43.8c14.7-10.2 38.7 9.4 27.2 23.8-4.3 5.7-10.4 9.6-17.1 11.8.2 7.5 6.1 21.7.8 23.2-6.7 1.9-7.6-19.1-8.2-24.6-.7-8.6-6-30.9-2.7-34.2zm6.7 8.4 2.6 18.5c15.4-5.2 16.7-21.9-2.6-18.5zM373.6 40.1c6.3-2.5 12.8 11.8 15 16.7.4.7 1.3.8 1.8.2 4.9-6.6 9.6-18.6 18.5-17.3 7.5 5.9-2 61.1-10.7 46.8-2-3.7 6.4-31.5 1.9-26.8-11.6 18.3-15.6 11.9-22.8-3.3-.2-.4-.7-.3-.8.1-.9 8.1-.3 17.1-4.2 24.3-2.3 2.9-5.3.7-4.9-2.5.1-9.9 3.3-36.2 6.2-38.2z"/><path class="st2" d="M204.8 46.9c4.9-1.3 19.1-4.6 14.6 4.9-1.3 2.8-17.2 3.4-17.3 4.1-.5 4.6.2 9.8.2 9.8 5.2-1.6 20.4-5.3 18.2 3.1-.8 3.1-19.8 4.6-19.8 4.6-1 4.1 1.3 8.6 1.3 8.6 3.8 1.4 11.4-1.5 14.8-1.7 6.7-.5 11.5 7.8 4.1 9.9-9.2 2.5-25.7 10.4-26.5-4.6-.5-6-5.5-9.1-.7-14.7 1.6-9.2-1.7-23.1 11.1-24zM308 46.2c4.7-3.1 15.1 17.1 17.4 20.9 3.8 6.5 4 24.5-3.8 11.4-1.3-2.1-2.6-4.3-3.3-5.6-.4-.6-1.1-1.1-1.9-1.1-2.7 0-6.1.2-7 1-3 2.5-.4 9.1-5.8 11.1-7.8 1.4 0-35.4 4.4-37.7zm2.5 14.4c-1 3.6-.9 5.7 2.6 4 .8-.4 1-1.1.4-1.9-.5-.8-1.3-1.7-2.1-2.4-.2-.3-.9-.2-.9.3z"/><ellipse transform="rotate(-20.265 41.416 112.683)" class="st3" cx="41.4" cy="112.7" rx="6.1" ry="8.1"/><ellipse transform="rotate(-20.265 479.2 14.777)" class="st3" cx="479.2" cy="14.8" rx="6.1" ry="8.1"/><ellipse transform="rotate(-57.798 36.316 23.908)" class="st3" cx="36.3" cy="23.9" rx="9.9" ry="7.4"/><ellipse transform="rotate(-57.798 475.157 112.668)" class="st3" cx="475.2" cy="112.7" rx="7.8" ry="5.8"/><path class="st4" d="M462.6 8.2s-8.1 18.2 12.1 26.2l-5 63.6s-15.1 6.1-10.1 22.2M52 13.3s10.1 18.2-10.1 26.2l4 58.5S61 104.1 56 120.2"/><path class="st0" d="m197.9 198.5-171 2c-5.4 0-9.9-4.2-10.1-9.6l-1.3-45.3c-.3-5.7 4.2-10.6 10-10.6l172.7-.3c6-.1 10.8 5 10.3 11l-.4 43.6c-.5 5.1-4.9 9.2-10.2 9.2z"/><path d="M32.2 142.4s1.7 12-11.4 12.8l1.3 28.9s9.1 0 8.1 8.7l164.6-1.2s-1.2-7.6 7.9-8.4v-32s-9.4 2.5-11.2-9.2l-159.3.4z" style="fill:none;stroke:#d87f5b;stroke-width:2.5665;stroke-linecap:round;stroke-linejoin:round;stroke-miterlimit:10"/><path class="st2" d="M78.8 148c-2.4.2-4.4-1.8-4.5-4.3l-1-16.2c-.2-2.5 1.6-4.7 4-4.9 2.4-.2 4.4 1.8 4.5 4.3l1 16.2c.2 2.5-1.6 4.7-4 4.9zM140.6 146.9c-2.4 0-4.3-1.9-4.3-4.3v-16.9c0-2.4 1.9-4.3 4.3-4.3s4.3 1.9 4.3 4.3v16.9c0 2.4-1.9 4.3-4.3 4.3z"/><path class="st0" d="m317.6 198.5 171 2c5.4 0 9.9-4.2 10.1-9.6l1.3-45.3c.3-5.7-4.2-10.6-10-10.6l-172.7-.3c-6-.1-10.8 5-10.3 11l.4 43.6c.6 5.1 5 9.2 10.2 9.2z"/><path class="st4" d="M483.3 141.4s-1.7 12.5 11.4 13.3l-1.3 30.1s-9.1 0-8.1 9.1l-164.6-1.3s1.2-7.9-7.9-8.8v-33.3s9.4 2.6 11.2-9.5l159.3.4z"/><path class="st2" d="M378.8 147c-2.4 0-4.3-1.9-4.3-4.3v-16.6c0-2.4 1.9-4.3 4.3-4.3s4.3 1.9 4.3 4.3v16.6c0 2.4-2 4.3-4.3 4.3zM438.5 147.9c-2.4-.1-4.1-2.2-4-4.5l1-16.6c.1-2.4 2.2-4.1 4.5-4 2.4.1 4.1 2.2 4 4.5l-1 16.6c-.1 2.3-2.1 4.1-4.5 4z"/><linearGradient id="SVGID_1_" gradientUnits="userSpaceOnUse" x1="347.315" y1="80.888" x2="347.315" y2="96.464" gradientTransform="matrix(1 0 0 -1 0 202)"><stop offset="0" style="stop-color:#ed7b31"/><stop offset="1" style="stop-color:#e29438"/></linearGradient><path d="M348.8 105.5c-.7 0-1.4.2-2.1.5-.6.4-1.1.8-1.5 1.4v-1.6h-4v15.3h4.3v-5.3c.4.4.9.8 1.4 1 .6.2 1.2.3 1.8.3 1.3 0 2.5-.5 3.4-1.5.9-1 1.3-2.4 1.3-4.2 0-1.7-.4-3.1-1.2-4.2-.8-1.1-2-1.7-3.4-1.7zm-.1 7.8c-.3.4-.8.6-1.2.6-.5 0-1.1-.2-1.4-.6-.4-.4-.5-1.1-.5-2 0-1 .2-1.6.5-2.1.3-.4.8-.6 1.4-.6.5 0 1 .2 1.3.6.3.4.5 1.1.5 2-.1 1-.3 1.7-.6 2.1z" style="fill:url(#SVGID_1_)"/><linearGradient id="SVGID_2_" gradientUnits="userSpaceOnUse" x1="361.357" y1="84.876" x2="361.357" y2="96.478" gradientTransform="matrix(1 0 0 -1 0 202)"><stop offset="0" style="stop-color:#ed7b31"/><stop offset="1" style="stop-color:#e29438"/></linearGradient><path d="M365 106.2c-.9-.5-2.2-.7-3.8-.7-2 0-3.5.5-4.6 1.6s-1.7 2.5-1.7 4.2c0 1.1.3 2.2.8 3.2.5.8 1.2 1.5 2.1 2 .8.4 2 .6 3.5.6 1.7 0 3-.2 3.9-.7 1-.6 1.8-1.4 2.3-2.4l-4.2-.4c-.2.3-.5.5-.7.7-.4.2-.8.3-1.2.3-.6 0-1.2-.2-1.6-.7-.3-.4-.5-1-.5-1.5h8.5v-.5c0-1.5-.2-2.7-.7-3.6-.5-.9-1.2-1.6-2.1-2.1zm-5.7 4.1c0-.5.2-1.1.5-1.5.7-.9 2-1.1 2.9-.4l.1.1c.4.4.6.9.7 1.8h-4.2z" style="fill:url(#SVGID_2_)"/><linearGradient id="SVGID_3_" gradientUnits="userSpaceOnUse" x1="375.613" y1="85.125" x2="375.613" y2="96.478" gradientTransform="matrix(1 0 0 -1 0 202)"><stop offset="0" style="stop-color:#ed7b31"/><stop offset="1" style="stop-color:#e29438"/></linearGradient><path d="M377.7 105.5c-.8 0-1.5.1-2.2.5-.7.4-1.3.9-1.8 1.6v-1.8h-4v11.1h4.2v-5.3c0-1 .2-1.7.5-2.1.3-.4.8-.6 1.3-.6.4 0 .8.1 1.1.4.3.3.4.8.4 1.5v6.1h4.3v-7.1c0-1.5-.3-2.5-1-3.2s-1.6-1.1-2.8-1.1z" style="fill:url(#SVGID_3_)"/><linearGradient id="SVGID_4_" gradientUnits="userSpaceOnUse" x1="390.175" y1="85.125" x2="390.175" y2="100.448" gradientTransform="matrix(1 0 0 -1 0 202)"><stop offset="0" style="stop-color:#ed7b31"/><stop offset="1" style="stop-color:#e29438"/></linearGradient><path style="fill:url(#SVGID_4_)" d="M384.3 116.9h4.8v-6.3h5.9v-3.1h-5.9v-2.7h6.9v-3.2h-11.7z"/><linearGradient id="SVGID_5_" gradientUnits="userSpaceOnUse" x1="403.425" y1="84.876" x2="403.425" y2="96.478" gradientTransform="matrix(1 0 0 -1 0 202)"><stop offset="0" style="stop-color:#ed7b31"/><stop offset="1" style="stop-color:#e29438"/></linearGradient><path d="M403.4 105.5c-1.9 0-3.5.5-4.6 1.6-1.1 1.1-1.8 2.6-1.7 4.2-.1 1.7.7 3.3 2 4.4 1.1.9 2.5 1.4 4.3 1.4 2 0 3.6-.5 4.7-1.6s1.7-2.6 1.7-4.2c0-1.4-.4-2.8-1.4-3.8-1.1-1.3-2.8-2-5-2zm1.5 8c-.7.8-1.9.9-2.8.2l-.2-.2c-.4-.5-.6-1.2-.6-2.2 0-1 .2-1.7.6-2.2.4-.5.9-.7 1.5-.7s1.1.3 1.5.7c.4.5.6 1.2.6 2.1 0 1.1-.2 1.9-.6 2.3z" style="fill:url(#SVGID_5_)"/><linearGradient id="SVGID_6_" gradientUnits="userSpaceOnUse" x1="416.248" y1="85.125" x2="416.248" y2="96.482" gradientTransform="matrix(1 0 0 -1 0 202)"><stop offset="0" style="stop-color:#ed7b31"/><stop offset="1" style="stop-color:#e29438"/></linearGradient><path d="M417.1 106c-.5.4-.9 1-1.2 1.6v-1.8h-4v11.1h4.3v-3.7c0-1.8.2-3 .7-3.6.3-.4.8-.7 1.3-.7.4 0 .8.1 1.2.3l1.3-3c-.6-.4-1.3-.6-2.1-.6-.6-.1-1.1.1-1.5.4z" style="fill:url(#SVGID_6_)"/><linearGradient id="SVGID_7_" gradientUnits="userSpaceOnUse" x1="427.466" y1="80.632" x2="427.466" y2="96.489" gradientTransform="matrix(1 0 0 -1 0 202)"><stop offset="0" style="stop-color:#ed7b31"/><stop offset="1" style="stop-color:#e29438"/></linearGradient><path d="M433.6 105.8h-4v1.6c-.4-.6-.9-1.1-1.6-1.5-.7-.3-1.4-.5-2.1-.5-1.2 0-2.5.5-3.3 1.4-.8.9-1.3 2.2-1.3 4 0 1.5.3 2.7 1 3.6.9 1.3 2.1 1.9 3.6 1.9 1.3 0 2.6-.6 3.4-1.6v1.7c0 .8-.2 1.4-.5 1.7-.4.4-.9.5-1.4.5-.4 0-.8-.1-1.2-.3-.2-.2-.4-.5-.5-.8l-4.1-.5v.6c0 1 .4 2 1.2 2.7.8.7 2.4 1 4.6 1 .9 0 1.7-.1 2.6-.3.7-.1 1.3-.4 1.9-.8.5-.4.9-.9 1.2-1.5.3-.6.4-1.3.4-2v-.5l.1-10.4zm-4.8 7.1c-.7.7-1.8.8-2.6.1l-.1-.1c-.3-.4-.5-1-.5-1.8 0-.9.2-1.6.5-2 .3-.4.8-.6 1.3-.6s1 .2 1.4.6c.4.4.6 1 .6 1.9s-.3 1.5-.6 1.9z" style="fill:url(#SVGID_7_)"/><linearGradient id="SVGID_8_" gradientUnits="userSpaceOnUse" x1="442.048" y1="84.884" x2="442.048" y2="96.486" gradientTransform="matrix(1 0 0 -1 0 202)"><stop offset="0" style="stop-color:#ed7b31"/><stop offset="1" style="stop-color:#e29438"/></linearGradient><path d="M448.5 111.9c0-1.5-.2-2.7-.7-3.6-.5-.9-1.2-1.6-2.1-2.1-.9-.5-2.2-.7-3.8-.7-2 0-3.5.5-4.6 1.6-1.1 1.1-1.7 2.5-1.7 4.2 0 1.1.3 2.2.8 3.2.5.8 1.2 1.5 2.1 2 .8.4 2 .6 3.5.6 1.7 0 3-.2 3.9-.7 1-.6 1.8-1.4 2.3-2.4l-4.2-.4c-.2.3-.5.5-.7.7-.4.2-.8.3-1.2.3-.6 0-1.2-.2-1.6-.7-.3-.4-.5-1-.5-1.5h8.5v-.5zm-8.5-1.6c0-.5.2-1 .5-1.5.7-.9 2-1.1 2.9-.4l.1.1c.4.4.6.9.7 1.8H440z" style="fill:url(#SVGID_8_)"/><linearGradient id="SVGID_9_" gradientUnits="userSpaceOnUse" x1="331.209" y1="83.772" x2="331.209" y2="103.31" gradientTransform="matrix(1 0 0 -1 0 202)"><stop offset="0" style="stop-color:#ed7b31"/><stop offset="1" style="stop-color:#e29438"/></linearGradient><path d="M339 107.4v-.1c-.3-1-.8-1.8-1.5-2.6l-.3-.3-.1-.1c-.3-.3-.7-.6-1-.9-.4-.4-.8-.7-1.1-1.2-.3-.4-.5-.8-.7-1.2-.2-.3-.2-.7-.2-1 0-.4.2-.7.5-.9.3-.2.7-.2 1-.2-.8-.3-1.6-.4-2.4-.3-.9.2-1.7.6-2.3 1.3-.6.6-1 1.3-1.2 2.1v.3c-1.6.2-3.1 1-4.3 2.1l-.4.4c-.2.2-.3.4-.5.6-.3.4-.5.8-.7 1.3-.5 1.1-.7 2.3-.7 3.4 0 2.5.9 4.5 2.6 6 1.4 1.2 3.3 1.9 5.6 1.9H331.9c.4 0 .7-.1 1.1-.1 1.7-.2 3.2-.9 4.4-2.1 1.4-1.4 2.1-3.2 2.2-5.4-.1-.9-.3-1.9-.6-3 0 .1 0 .1 0 0zm-8.4-1c.4.5.7 1 1.2 1.6.5.6 1 1.2 1.4 1.8.3.4.5.7.7 1.1-.1 1.1-.3 1.9-.7 2.4-.8 1.1-2.4 1.3-3.4.5-.2-.1-.3-.3-.5-.5-.5-.6-.8-1.6-.8-3s.3-2.3.8-3c.3-.4.8-.7 1.3-.9z" style="fill:url(#SVGID_9_)"/><linearGradient id="SVGID_10_" gradientUnits="userSpaceOnUse" x1="447.662" y1="99.2" x2="452.121" y2="99.2" gradientTransform="matrix(1 0 0 -1 0 202)"><stop offset="0" style="stop-color:#ed7b31"/><stop offset="1" style="stop-color:#e29438"/></linearGradient><path d="M448.7 103.9h-.3V102h-.7v-.3h1.7v.3h-.7v1.9zm2.3-.5-.8-1.2v1.7h-.3v-2.2h.3l.8 1.2.8-1.2h.3v2.2h-.3v-1.7l-.8 1.2z" style="fill:url(#SVGID_10_)"/><linearGradient id="SVGID_11_" gradientUnits="userSpaceOnUse" x1="309.381" y1="82.73" x2="309.381" y2="107.804" gradientTransform="matrix(1 0 0 -1 0 202)"><stop offset="0" style="stop-color:#ed7b31"/><stop offset="1" style="stop-color:#e29438"/></linearGradient><path d="M317.2 107.6c-.3-2.4-1.5-4.6-3.6-6.5-.5-.4-1-.9-1.5-1.3s-1-.9-1.4-1.3c-.4-.4-.8-.8-1.1-1.3-.2-.3-.4-.8-.4-1.2 0-.5.2-.9.5-1.2.3-.3.7-.5 1.2-.4-1-.2-2-.1-3 .3-1.1.5-2 1.2-2.6 2.2-.7.9-1.1 1.9-1.2 3-.1 1 0 1.9.4 2.8.1.2.2.4.3.5l.5-.5.1-.1c.2-.1.4-.2.7-.1.2.1.4.3.6.5l2.9 3 .3-.3c.3-.3.8-.3 1.2 0l.5.5c.3.3.3.8 0 1.2l-.3.3 3.1 3.2c.3.3.4.9 0 1.2l-4.1 4.1c-.3.3-.9.3-1.2 0l-3.2-3.2-4.4 4.4c2.3 1.5 4.9 2.3 7.7 1.6 1.2-.3 2.4-.8 3.4-1.5 1.1-.8 2-1.8 2.8-2.9 1.5-2 2.1-4.5 1.8-7z" style="fill:url(#SVGID_11_)"/><linearGradient id="SVGID_12_" gradientUnits="userSpaceOnUse" x1="301.028" y1="86.254" x2="301.028" y2="100.462" gradientTransform="matrix(1 0 0 -1 0 202)"><stop offset="0" style="stop-color:#ed7b31"/><stop offset="1" style="stop-color:#e29438"/></linearGradient><path d="M298.1 108.1c-.7 2.7 0 5.5 1.7 7.6l4.4-4.4-3.2-3.2c-.3-.3-.4-.9 0-1.2l1.9-1.9c-.1-.2-.3-.4-.4-.5-1.2-1.4-2.5-2.5-4.5-3 .5.2 1 .6 1.3 1 .5.8.7 1.8.2 2.6-.6 1-1.1 2-1.4 3z" style="fill:url(#SVGID_12_)"/><linearGradient id="SVGID_13_" gradientUnits="userSpaceOnUse" x1="303.926" y1="95.257" x2="303.926" y2="97.82" gradientTransform="matrix(1 0 0 -1 0 201.997)"><stop offset="0" style="stop-color:#ed7b31"/><stop offset="1" style="stop-color:#e29438"/></linearGradient><path d="m302.7 106.4 2.2-2.2h.1l.2.2v.1l-2.2 2.2h-.1l-.2-.2c-.1 0-.1-.1 0-.1z" style="fill:url(#SVGID_13_)"/><linearGradient id="SVGID_14_" gradientUnits="userSpaceOnUse" x1="311.365" y1="88.305" x2="311.365" y2="89.747" gradientTransform="matrix(1 0 0 -1 0 202)"><stop offset="0" style="stop-color:#ed7b31"/><stop offset="1" style="stop-color:#e29438"/></linearGradient><circle cx="311.4" cy="113" r=".7" style="fill:url(#SVGID_14_)"/><linearGradient id="SVGID_15_" gradientUnits="userSpaceOnUse" x1="307.313" y1="88.523" x2="307.313" y2="97.408" gradientTransform="matrix(1 0 0 -1 -.004 201.997)"><stop offset="0" style="stop-color:#ed7b31"/><stop offset="1" style="stop-color:#e29438"/></linearGradient><path d="m303 108 3.3-3.3c.2-.2.4-.2.6 0l4.8 4.8c.2.2.2.4 0 .6l-3.3 3.3c-.2.2-.4.2-.6 0l-4.8-4.8c-.2-.2-.2-.5 0-.6z" style="fill:url(#SVGID_15_)"/><text transform="translate(232.374 113.55)" class="st2" style="font-size:12px;font-family:'SourceSansPro-Semibold'">Powered by</text></svg>