<svg xmlns="http://www.w3.org/2000/svg" viewBox="0 0 156 224" style="enable-background:new 0 0 156 224" xml:space="preserve"><style>.st8{fill:#704913}.st9{fill:#ffd8a8}.st10{fill:#58c9df}</style><g id="Layer_2"><path d="M148.3 163.4.1 151.6v-20.9l11.8-3.6-11.8-3.8V3.4C73.8-9.4 155.6 24.3 155.6 24.3L153.5 64s-7.9-2.4-13.4 2.2l13.6 4.5-5.4 92.7z" style="fill:#431a0f"/><path class="st8" d="M97.4 224.3h-40v-70.7s30.6-6.4 32.7.7c5.5 18.2 7.3 70 7.3 70zM148.3 163.4.1 151.6v-20.9l11.8-3.6-11.8-3.8V3.4C73.8-9.4 155.6 24.3 155.6 24.3L153.5 64s-7.9-2.4-13.4 2.2l13.6 4.5-5.4 92.7z"/><path class="st9" d="M139.3 152.9 10.1 142.6v-10l10.3-5.9-10.3-6V13.5C74.3 2.4 145.6 31.7 145.6 31.7l-1.8 27.1s-7.1 3.3-11.8 7.3l12.1 6-4.8 80.8zM90.5 224.3H64.7v-43.6s17.3-2.7 22-13c.1-.3.6 6.8 1.3 16 .1 1.5-6.8 5.2-6.8 5.2l6.4-.9c.7 14.1 2.9 36.3 2.9 36.3z"/><path class="st10" d="M80 30.1c2.3-1.1 4.9-.8 5.8 1.7.8.6 2.1.4 2.7 1.3 2.4 3.9-2.9 6.4 3.7 6.8 7.5 2.6-2.1 7.9-1.7 11.8 1 3.3 3.8 5.5 5.1 8.6 1.5 1.8 1.1 4.7 2.8 6.2 1.6.1 4.4-2.1 4.6 1-1.7 5.6-4.3 21.7-12.3 12-4.5-4.9-4.7-12.4-9.3-17-6.2-6-14.2-6.5-21.6-2.3-11.3 3-17.3 25.8-6.7 32.6 11.7 7.5 21.8 2.3 12.2 21-33 1.7-43.8-39.6-25.3-62.4 19.9-21.2 25.7-8.1 40-21.3zm14.1 42.4c.4.8.6 1.7 1.4 2.1.6-1.8.6-2.4-1.4-2.1zm-60.5 7.8c1 3.2 1.6-2.3 1.7-3.4-2-.3-1.7 2.1-1.7 3.4z"/><path class="st10" d="M106.1 42.2c3.4-.9 5.8 1.4 7.3 4.1 6 4.9-1.4 12.7-7.1 13.4-3.1 0-8.8 0-9.6-3.7.6-5.6 3.4-12 9.4-13.8zM69.1 81.3c6.8-2.1 9.6 5.8 13.7 9.4 3.3 2.3 6.6 4.5 9.6 7.2 9.7 8.4 12.5 12.8.4 20.6-1.2.8-2.1 1.7-2.6 3.1-3.1 2.1-6.5 3.7-9.7 5.6-3.6 2.2-7 6.3-11.6 5.9-6.6-4.4-2.9-13.6-1.4-19.8.1-1.4 1-2 2.2-2.3 1.2-3.7 1.7-7.7 2-11.6.8-5.9-7.6-12.4-2.6-18.1zM91 106.2c0 2.4-7.3 11.9-1.1 8.3 2.9-3 7.1-5.9 1.1-8.3z"/><path class="st8" d="M3.8 29.7s13.6-4.5 24.6.9l-24.6-.9zM3.8 117.9s8.2-9.1 18.2.9l-18.2-.9zM3.8 40.3s9.6 3.2 17.3-.6l-17.3.6zM126.6 82.7c8.2 9 22.6 9.6 22.6 9.6l-22.6-9.6zM146.7 87s-5.6-12.7-20.1-11.8L146.7 87"/></g></svg>